<?xml version="1.0" encoding="UTF-8"?>
<svg id="Capa_1" data-name="Capa 1" xmlns="http://www.w3.org/2000/svg" viewBox="0 0 1001.06 141.35">
  <defs>
    <style>
      .cls-1 {
        fill: #dc2626;
      }

      .cls-2 {
        fill: #e5e7eb;
      }
    </style>
  </defs>
  <g>
    <path class="cls-1" d="M39.16,131.98V22.33H0V0h104.88v22.33h-39.07v109.65h-26.65Z"/>
    <path class="cls-1" d="M135.94,131.98h-25.3V36.37h23.5v13.59c4.02-6.42,7.64-10.65,10.85-12.69,3.21-2.04,6.86-3.06,10.94-3.06,5.76,0,11.31,1.59,16.65,4.77l-7.83,22.06c-4.26-2.76-8.22-4.14-11.88-4.14s-6.54.98-9,2.93c-2.46,1.95-4.4,5.48-5.81,10.58-1.41,5.1-2.11,15.79-2.11,32.05v29.53Z"/>
    <path class="cls-1" d="M177.62,82.83c0-8.4,2.07-16.54,6.21-24.4,4.14-7.86,10.01-13.86,17.6-18.01,7.59-4.14,16.07-6.21,25.43-6.21,14.46,0,26.32,4.69,35.56,14.09,9.24,9.39,13.86,21.26,13.86,35.6s-4.67,26.45-14,35.96c-9.33,9.51-21.08,14.27-35.25,14.27-8.76,0-17.12-1.98-25.07-5.94-7.95-3.96-14-9.77-18.14-17.42-4.14-7.65-6.21-16.97-6.21-27.95ZM203.55,84.17c0,9.48,2.25,16.74,6.75,21.79s10.05,7.56,16.65,7.56,12.14-2.52,16.61-7.56c4.47-5.04,6.71-12.36,6.71-21.97s-2.24-16.56-6.71-21.61c-4.47-5.04-10.01-7.56-16.61-7.56s-12.15,2.52-16.65,7.56-6.75,12.31-6.75,21.79Z"/>
    <path class="cls-1" d="M295.02,131.98V0h25.3v47.53c7.8-8.88,17.04-13.32,27.73-13.32,11.64,0,21.28,4.22,28.9,12.65,7.62,8.43,11.43,20.54,11.43,36.32s-3.89,28.9-11.66,37.72c-7.77,8.82-17.21,13.24-28.31,13.24-5.46,0-10.85-1.37-16.16-4.1-5.31-2.73-9.89-6.77-13.73-12.11v14.04h-23.5ZM320.13,82.11c0,9.9,1.56,17.23,4.68,21.97,4.38,6.72,10.2,10.08,17.47,10.08,5.58,0,10.34-2.39,14.27-7.16,3.93-4.77,5.9-12.29,5.9-22.55,0-10.92-1.98-18.8-5.94-23.63s-9.03-7.25-15.21-7.25-11.1,2.36-15.12,7.07c-4.02,4.71-6.03,11.87-6.03,21.47Z"/>
    <path class="cls-1" d="M427.62,65.54l-22.96-4.14c2.58-9.24,7.02-16.08,13.32-20.53s15.66-6.66,28.09-6.66c11.28,0,19.68,1.34,25.21,4.01,5.52,2.67,9.41,6.06,11.66,10.17,2.25,4.11,3.38,11.66,3.38,22.64l-.27,29.53c0,8.4.41,14.6,1.21,18.59.81,3.99,2.33,8.27,4.55,12.83h-25.03c-.66-1.68-1.47-4.17-2.43-7.47-.42-1.5-.72-2.49-.9-2.97-4.32,4.2-8.94,7.35-13.86,9.45-4.92,2.1-10.17,3.15-15.75,3.15-9.84,0-17.6-2.67-23.27-8.01-5.67-5.34-8.51-12.09-8.51-20.25,0-5.4,1.29-10.22,3.87-14.45,2.58-4.23,6.2-7.47,10.85-9.72,4.65-2.25,11.36-4.22,20.12-5.9,11.82-2.22,20.02-4.29,24.58-6.21v-2.52c0-4.86-1.2-8.32-3.6-10.4-2.4-2.07-6.93-3.11-13.59-3.11-4.5,0-8.01.89-10.53,2.66-2.52,1.77-4.56,4.87-6.12,9.32ZM461.47,86.07c-3.24,1.08-8.37,2.37-15.39,3.87-7.02,1.5-11.61,2.97-13.77,4.41-3.3,2.34-4.95,5.31-4.95,8.91s1.32,6.6,3.96,9.18c2.64,2.58,6,3.87,10.08,3.87,4.56,0,8.91-1.5,13.05-4.5,3.06-2.28,5.07-5.07,6.03-8.37.66-2.16.99-6.27.99-12.33v-5.04Z"/>
  </g>
  <g>
    <rect class="cls-2" x="505.13" y="28.24" width="113.11" height="113.11" rx="2.08" ry="2.08"/>
    <path d="M607.01,64.64l-24.94,4.5c-.84-4.98-2.75-8.73-5.72-11.25-2.97-2.52-6.83-3.78-11.57-3.78-6.3,0-11.33,2.18-15.08,6.53-3.75,4.35-5.63,11.63-5.63,21.83,0,11.34,1.91,19.36,5.72,24.04,3.81,4.68,8.93,7.02,15.35,7.02,4.8,0,8.73-1.37,11.79-4.1,3.06-2.73,5.22-7.43,6.48-14.09l24.85,4.23c-2.58,11.4-7.53,20.02-14.85,25.84-7.32,5.82-17.14,8.73-29.44,8.73-13.99,0-25.13-4.41-33.45-13.23-8.31-8.82-12.47-21.03-12.47-36.64s4.17-28.07,12.51-36.86c8.34-8.79,19.63-13.19,33.85-13.19,11.64,0,20.9,2.51,27.77,7.52,6.87,5.01,11.81,12.65,14.81,22.91Z"/>
  </g>
  <g>
    <rect class="cls-2" x="632.74" y="28.24" width="113.11" height="113.11" rx="2.08" ry="2.08"/>
    <path d="M640.36,82.82c0-8.4,2.07-16.53,6.21-24.4,4.14-7.86,10.01-13.86,17.6-18.01,7.59-4.14,16.07-6.21,25.43-6.21,14.46,0,26.32,4.7,35.56,14.09,9.24,9.39,13.86,21.26,13.86,35.6s-4.67,26.45-14,35.96c-9.33,9.51-21.08,14.27-35.25,14.27-8.76,0-17.12-1.98-25.07-5.94-7.95-3.96-14-9.77-18.14-17.42-4.14-7.65-6.21-16.97-6.21-27.95ZM666.29,84.17c0,9.48,2.25,16.74,6.75,21.79s10.05,7.56,16.65,7.56,12.14-2.52,16.61-7.56c4.47-5.04,6.71-12.36,6.71-21.97s-2.24-16.56-6.71-21.61c-4.47-5.04-10.01-7.56-16.61-7.56s-12.15,2.52-16.65,7.56-6.75,12.3-6.75,21.79Z"/>
  </g>
  <g>
    <rect class="cls-2" x="887.96" y="28.24" width="113.11" height="113.11" rx="2.08" ry="2.08"/>
    <path d="M925.38,65.54l-22.96-4.14c2.58-9.24,7.02-16.08,13.32-20.53,6.3-4.44,15.66-6.66,28.09-6.66,11.28,0,19.68,1.34,25.21,4.01,5.52,2.67,9.41,6.06,11.66,10.17,2.25,4.11,3.38,11.66,3.38,22.64l-.27,29.53c0,8.4.41,14.6,1.21,18.59.81,3.99,2.33,8.27,4.55,12.83h-25.03c-.66-1.68-1.47-4.17-2.43-7.47-.42-1.5-.72-2.49-.9-2.97-4.32,4.2-8.94,7.35-13.86,9.45-4.92,2.1-10.17,3.15-15.75,3.15-9.84,0-17.6-2.67-23.27-8.01-5.67-5.34-8.51-12.09-8.51-20.26,0-5.4,1.29-10.22,3.87-14.45,2.58-4.23,6.2-7.47,10.85-9.72,4.65-2.25,11.36-4.21,20.12-5.9,11.82-2.22,20.02-4.29,24.58-6.21v-2.52c0-4.86-1.2-8.33-3.6-10.4-2.4-2.07-6.93-3.11-13.59-3.11-4.5,0-8.01.89-10.53,2.66-2.52,1.77-4.56,4.88-6.12,9.32ZM959.23,86.06c-3.24,1.08-8.37,2.37-15.39,3.87-7.02,1.5-11.61,2.97-13.77,4.41-3.3,2.34-4.95,5.31-4.95,8.91s1.32,6.6,3.96,9.18c2.64,2.58,6,3.87,10.08,3.87,4.56,0,8.91-1.5,13.05-4.5,3.06-2.28,5.07-5.07,6.03-8.37.66-2.16.99-6.27.99-12.33v-5.04Z"/>
  </g>
  <g>
    <rect class="cls-2" x="760.35" y="28.24" width="113.11" height="113.11" rx="2.08" ry="2.08"/>
    <g>
      <path d="M778.91,131.98V0h25.3v131.98h-25.3Z"/>
      <path d="M830.13,131.98V0h25.3v131.98h-25.3Z"/>
    </g>
  </g>
</svg>