<?xml version="1.0" encoding="UTF-8"?>
<svg id="Capa_1" xmlns="http://www.w3.org/2000/svg" viewBox="0 0 437.19 437.19">
  <defs>
    <style>
      .cls-1, .cls-2 {
        fill: #fff;
      }

      .cls-2 {
        fill-rule: evenodd;
      }
    </style>
  </defs>
  <path class="cls-1" d="M185.5,132.94h66.2v33.1h-66.2v-33.1ZM170.36,25.17l-33.1,57.33,28.66,16.55,33.1-57.33-28.66-16.55ZM299.93,82.49l-33.1-57.33-28.66,16.55,33.1,57.33,28.66-16.55ZM185.5,304.25h66.2v-33.1h-66.2v33.1ZM170.36,412.03l-33.1-57.33,28.66-16.55,33.1,57.33-28.66,16.55ZM299.93,354.7l-33.1,57.33-28.66-16.55,33.1-57.33,28.66,16.55ZM165.89,185.35v66.2h-33.1v-66.2h33.1ZM271.3,185.35v66.2h33.1v-66.2h-33.1ZM412.03,170.36l-57.33-33.1-16.55,28.66,57.33,33.1,16.55-28.66ZM354.7,299.93l57.33-33.1-16.55-28.66-57.33,33.1,16.55,28.66ZM25.17,170.36l57.33-33.1,16.55,28.66-57.33,33.1-16.55-28.66ZM82.49,299.93l-57.33-33.1,16.55-28.66,57.33,33.1-16.55,28.66Z"/>
  <polygon class="cls-2" points="240.3 358.12 255.27 350.53 241.21 374.88 240.3 358.12"/>
  <polygon class="cls-2" points="198.06 358.12 183.09 350.53 197.15 374.88 198.06 358.12"/>
  <polygon class="cls-2" points="240.3 81.29 255.27 88.88 241.21 64.53 240.3 81.29"/>
  <polygon class="cls-2" points="198.06 81.29 183.09 88.88 197.15 64.53 198.06 81.29"/>
  <polygon class="cls-2" points="79.76 239.83 87.35 254.8 63 240.74 79.76 239.83"/>
  <polygon class="cls-2" points="79.76 197.59 87.35 182.62 63 196.68 79.76 197.59"/>
  <polygon class="cls-2" points="358.59 197.59 351 182.62 375.35 196.68 358.59 197.59"/>
  <polygon class="cls-2" points="358.59 239.83 351 254.8 375.35 240.74 358.59 239.83"/>
  <polygon class="cls-2" points="218.98 253.61 201.74 264.85 236.22 264.85 218.98 253.61"/>
  <polygon class="cls-2" points="218.99 184.28 201.75 173.03 236.22 173.03 218.99 184.28"/>
  <polygon class="cls-2" points="184.35 218.94 173.11 201.71 173.11 236.18 184.35 218.94"/>
  <polygon class="cls-2" points="253.61 218.94 264.86 201.71 264.86 236.18 253.61 218.94"/>
</svg>