<?xml version="1.0" encoding="UTF-8"?>
<svg id="Capa_1" xmlns="http://www.w3.org/2000/svg" viewBox="0 0 437.19 437.19">
  <defs>
    <style>
      .cls-1, .cls-2 {
        fill: #fff;
      }

      .cls-2 {
        fill-rule: evenodd;
      }
    </style>
  </defs>
  <rect class="cls-1" x="174.9" y="193" width="88" height="44"/>
  <path class="cls-1" d="M168.9,293h100v50h-100v-50ZM129.73,103.19l-50,86.6,43.3,25,50-86.6-43.3-25ZM357.46,189.8l-50-86.6-43.3,25,50,86.6,43.3-25Z"/>
  <polygon class="cls-2" points="218.96 271.61 196.43 286.3 241.49 286.3 218.96 271.61"/>
  <polygon class="cls-2" points="218.96 258.69 196.43 244 241.49 244 218.96 258.69"/>
  <polygon class="cls-2" points="269.6 183.18 294.87 196 271.14 154.88 269.6 183.18"/>
  <polygon class="cls-2" points="168.29 183.18 143.01 196 166.75 154.88 168.29 183.18"/>
</svg>