<?xml version="1.0" encoding="UTF-8"?>
<svg id="Capa_1" xmlns="http://www.w3.org/2000/svg" viewBox="0 0 437.19 437.19">
  <defs>
    <style>
      .cls-1, .cls-2 {
        fill: #fff;
      }

      .cls-2 {
        fill-rule: evenodd;
      }
    </style>
  </defs>
  <path class="cls-1" d="M185.28,155.63h66.64v33.32h-66.64v-33.32ZM170.04,47.14l-33.32,57.71,28.86,16.66,33.32-57.71-28.86-16.66ZM300.47,104.86l-33.32-57.71-28.86,16.66,33.32,57.71,28.86-16.66Z"/>
  <polygon class="cls-2" points="219.09 205.53 205.03 196.36 233.15 196.36 219.09 205.53"/>
  <polygon class="cls-2" points="240.2 101.76 255.17 109.35 241.11 85 240.2 101.76"/>
  <polygon class="cls-2" points="197.96 101.76 182.99 109.35 197.05 85 197.96 101.76"/>
  <rect class="cls-1" x="184.95" y="248.53" width="66.64" height="33.32"/>
  <rect class="cls-1" x="150.82" y="319.83" width="33.32" height="66.64" transform="translate(-154.14 131.05) rotate(-30)"/>
  <rect class="cls-1" x="235.73" y="336.49" width="66.64" height="33.32" transform="translate(-171.31 409.58) rotate(-60)"/>
  <polygon class="cls-2" points="218.76 231.95 204.7 241.12 232.82 241.12 218.76 231.95"/>
  <polygon class="cls-2" points="239.87 335.72 254.84 328.13 240.78 352.48 239.87 335.72"/>
  <polygon class="cls-2" points="197.63 335.72 182.66 328.13 196.72 352.48 197.63 335.72"/>
</svg>