<?xml version="1.0" encoding="UTF-8"?>
<svg id="Capa_1" xmlns="http://www.w3.org/2000/svg" viewBox="0 0 437.19 437.19">
  <defs>
    <style>
      .cls-1, .cls-2 {
        fill: #fff;
      }

      .cls-2 {
        fill-rule: evenodd;
      }
    </style>
  </defs>
  <path class="cls-1" d="M155.98,96.99v78.65h-39.33v-78.65h39.33ZM281.21,96.99v78.65h39.33v-78.65h-39.33ZM179.27,238.26h78.65v-39.33h-78.65v39.33ZM179.27,73.7h78.65v-39.33h-78.65v39.33ZM116.65,261.55v78.65h39.33v-78.65h-39.33ZM281.21,261.55v78.65h39.33v-78.65h-39.33ZM179.27,402.82h78.65v-39.33h-78.65v39.33Z"/>
  <polygon class="cls-2" points="218.9 176.05 197.96 189.7 239.83 189.7 218.9 176.05"/>
  <polygon class="cls-2" points="218.9 96.7 197.96 83.04 239.84 83.05 218.9 96.7"/>
  <polygon class="cls-2" points="179.22 136.38 165.57 115.44 165.57 157.31 179.22 136.38"/>
  <polygon class="cls-2" points="258.57 136.38 272.22 115.44 272.22 157.31 258.57 136.38"/>
  <polygon class="cls-2" points="218.9 341.66 239.83 355.31 197.96 355.31 218.9 341.66"/>
  <polygon class="cls-2" points="258.57 301.99 272.22 322.92 272.22 281.05 258.57 301.99"/>
  <polygon class="cls-2" points="179.22 301.99 165.57 322.92 165.57 281.05 179.22 301.99"/>
</svg>