<?xml version="1.0" encoding="UTF-8"?>
<svg id="Capa_1" xmlns="http://www.w3.org/2000/svg" viewBox="0 0 437.19 437.19">
  <defs>
    <style>
      .cls-1, .cls-2 {
        fill: #fff;
      }

      .cls-2 {
        fill-rule: evenodd;
      }
    </style>
  </defs>
  <path class="cls-1" d="M182.58,244.19h72.03v36.01h-72.03v-36.01ZM166.11,126.92l-36.01,62.38,31.19,18.01,36.01-62.38-31.19-18.01ZM307.09,189.3l-36.01-62.38-31.19,18.01,36.01,62.38,31.19-18.01ZM364.4,90.05h-72.03v-36.01h72.03v36.01ZM380.86,207.31l36.01-62.38-31.19-18.01-36.01,62.38,31.19,18.01ZM271.08,397.46l36.01-62.38-31.19-18.01-36.01,62.38,31.19,18.01ZM130.1,335.09l36.01,62.38,31.19-18.01-36.01-62.38-31.19,18.01ZM144.82,90.05h-72.03v-36.01h72.03v36.01ZM20.31,144.93l36.01,62.38,31.19-18.01-36.01-62.38-31.19,18.01Z"/>
  <polygon class="cls-2" points="219.06 226.73 203.92 236.6 234.2 236.6 219.06 226.73"/>
  <polygon class="cls-2" points="241.79 186.08 257.92 194.26 242.77 168.03 241.79 186.08"/>
  <polygon class="cls-2" points="196.31 186.08 180.19 194.26 195.33 168.03 196.31 186.08"/>
  <polygon class="cls-2" points="196.31 338.21 180.19 330.03 195.33 356.26 196.31 338.21"/>
  <polygon class="cls-2" points="241.79 338.21 257.91 330.03 242.77 356.26 241.79 338.21"/>
  <polygon class="cls-2" points="330.04 107.58 314.9 97.7 345.19 97.7 330.04 107.58"/>
  <polygon class="cls-2" points="352.79 146.97 353.77 165.02 368.91 138.79 352.79 146.97"/>
  <polygon class="cls-2" points="109.58 109.58 124.72 99.7 94.44 99.7 109.58 109.58"/>
  <polygon class="cls-2" points="86.84 148.97 85.85 167.02 70.71 140.79 86.84 148.97"/>
</svg>