<?xml version="1.0" encoding="UTF-8" standalone="no"?>
<!-- Created with Inkscape (http://www.inkscape.org/) -->
<svg width="112.254mm" height="115.249mm" viewBox="0 0 112.254 115.249" version="1.1" id="svg1" xml:space="preserve" sodipodi:docname="escut_vlnv_colla-de-mar.svg" inkscape:version="1.3 (0e150ed6c4, 2023-07-21)" xmlns:inkscape="http://www.inkscape.org/namespaces/inkscape" xmlns:sodipodi="http://sodipodi.sourceforge.net/DTD/sodipodi-0.dtd" xmlns="http://www.w3.org/2000/svg" xmlns:svg="http://www.w3.org/2000/svg"><sodipodi:namedview id="namedview1" pagecolor="#ffffff" bordercolor="#666666" borderopacity="1.0" inkscape:showpageshadow="2" inkscape:pageopacity="0.0" inkscape:pagecheckerboard="0" inkscape:deskcolor="#d1d1d1" inkscape:document-units="mm" inkscape:zoom="1.0469406" inkscape:cx="272.69932" inkscape:cy="220.1653" inkscape:window-width="1920" inkscape:window-height="1009" inkscape:window-x="-8" inkscape:window-y="111" inkscape:window-maximized="1" inkscape:current-layer="layer1"/><defs id="defs1"/><g inkscape:label="Capa 1" inkscape:groupmode="layer" id="layer1"><path id="path31" style="color:#000000;fill:#ffffff;stroke-width:1.03835;stroke-linecap:square;-inkscape-stroke:none" d="m -7.2e-5,-1.5e-4 v 1.5565 113.6928 h 7.52151 6.07404 98.658592 V -1.5e-4 H 13.595478 7.521438 Z m 1.44487,1.55701 h 6.07612 6.0756 97.213192 V 113.6911 h -97.213192 -6.0756 -6.07612 z"/><path style="color:#000000;fill:#ffcc00;stroke-width:1.03835;stroke-linecap:square;-inkscape-stroke:none" d="m 1.444798,1.55666 v 112.13447 h 6.07612 6.0756 97.213192 V 1.55666 h -97.213192 -6.0756 z" id="path30"/><path id="rect21" style="fill:#ff0000;fill-opacity:1;stroke:none;stroke-width:1.55753;stroke-linecap:square;stroke-dasharray:none;stroke-opacity:1" d="m 13.596518,1.55666 v 112.13447 h 12.15171 V 1.55666 Z m 24.30342,0 V 113.69113 H 50.05166 V 1.55666 Z m 24.302912,0 V 113.69113 H 74.35457 V 1.55666 Z m 24.30343,0 V 113.69113 H 98.658 V 1.55666 Z"/><path style="color:#000000;fill:#ffffff;-inkscape-stroke:none" d="m 28.927958,33.29538 c -2.90634,-0.17785 -5.7975,1.27064 -7.30273,3.80078 -3.1e-4,5.2e-4 3.1e-4,0.001 0,0.002 -2.32183,3.81323 -2.58214,8.31075 -2.82812,12.42578 v 0.004 0.004 c -0.0806,1.6302 -0.2057,3.33168 0.11718,5.07813 l -0.008,-0.0527 c 0.56241,4.986 0.56278,10.39565 2.98047,15.23438 1.3449,2.70175 3.82886,4.79503 6.83594,5.44336 l 0.31641,-1.4668 c -2.52026,-0.54336 -4.65719,-2.32865 -5.81055,-4.64648 v -0.002 c -2.2148,-4.43264 -2.25696,-9.6321 -2.83205,-14.73047 l -0.002,-0.0273 -0.006,-0.0254 c -0.27783,-1.50279 -0.17531,-3.08082 -0.0937,-4.73047 0.24573,-4.11004 0.53979,-8.32731 2.61133,-11.72851 l 0.002,-0.004 0.002,-0.004 c 1.19708,-2.01828 3.57966,-3.22169 5.92578,-3.07813 z" id="path12-9"/><path style="color:#000000;fill:#ffffff;-inkscape-stroke:none" d="m 83.32654,33.29538 c 2.90635,-0.17785 5.79751,1.27064 7.30274,3.80078 3.1e-4,5.2e-4 -3.1e-4,0.001 0,0.002 2.32182,3.81323 2.58214,8.31075 2.82812,12.42578 v 0.004 0.004 c 0.0806,1.6302 0.2057,3.33168 -0.11718,5.07813 l 0.008,-0.0527 c -0.56241,4.986 -0.56278,10.39565 -2.98047,15.23438 -1.3449,2.70175 -3.82886,4.79503 -6.83594,5.44336 l -0.31641,-1.4668 c 2.52026,-0.54336 4.65719,-2.32865 5.81055,-4.64648 v -0.002 c 2.2148,-4.43264 2.25696,-9.6321 2.83204,-14.73047 l 0.002,-0.0273 0.006,-0.0254 c 0.27784,-1.50279 0.17532,-3.08082 0.0937,-4.73047 -0.24572,-4.11004 -0.53978,-8.32731 -2.61132,-11.72851 l -0.002,-0.004 -0.002,-0.004 C 88.14729,35.8514 85.76471,34.64799 83.41858,34.79155 Z" id="path13"/><path id="path9-1" style="fill:#ffffff;stroke:#000080;stroke-width:1;stroke-linecap:butt;stroke-linejoin:miter;stroke-dasharray:none;stroke-opacity:1" d="m 56.01155,6.69453 a 4.9584279,4.9584279 0 0 0 -4.95835,4.95835 4.9584279,4.9584279 0 0 0 3.07061,4.57491 l -0.007,0.008 -3.10885,66.00425 -1.51929,12.5088 -16.708032,-7.86257 c -0.35739,-1.51895 2.41226,-1.96577 2.41226,-1.96577 -4.02074,-2.59116 -10.45414,-2.94866 -10.45414,-2.94866 0.5361,6.2007 4.82503,10.27534 4.82503,10.27534 -0.26806,-2.94855 1.25108,-3.48454 1.25108,-3.48454 L 56.01127,108.41932 81.20766,88.76264 c 0,0 1.51914,0.53599 1.25109,3.48454 0,0 4.28893,-4.07464 4.82503,-10.27534 0,0 -6.4334,0.3575 -10.45415,2.94866 0,0 2.76966,0.44682 2.41226,1.96577 l -16.70802,7.86257 -1.51929,-12.5088 -3.23133,-65.95567 -0.001,-10e-4 a 4.9584279,4.9584279 0 0 0 3.1874,-4.63021 4.9584279,4.9584279 0 0 0 -4.95835,-4.95835 z m 0,2.47943 a 2.479214,2.479214 0 0 1 2.47943,2.47892 2.479214,2.479214 0 0 1 -2.47943,2.47943 2.479214,2.479214 0 0 1 -2.47944,-2.47943 2.479214,2.479214 0 0 1 2.47944,-2.47892 z"/><path id="path11" style="fill:#ffffff;fill-opacity:1;stroke:#000080;stroke-width:1;stroke-linecap:butt;stroke-linejoin:miter;stroke-dasharray:none;stroke-opacity:1" d="m 82.35464,13.51272 c -1.01966,-0.0599 -2.29997,0.25159 -3.34244,1.73632 -2.08493,2.96947 -44.316669,81.15888 -44.316669,81.15888 -0.0945,0.30721 -1.6096,1.93802 0.0555,3.59624 2.28385,0.57395 3.02263,-1.64243 3.16393,-1.76018 0,0 45.788399,-76.16157 47.282389,-79.46802 1.49399,-3.30646 -1.06402,-4.77232 -1.06402,-4.77232 0,0 -0.75905,-0.43107 -1.7787,-0.49092 z" sodipodi:nodetypes="sscccscs"/><path id="path32" style="fill:#ffffff;fill-opacity:1;stroke:#000080;stroke-width:1;stroke-linecap:butt;stroke-linejoin:miter;stroke-dasharray:none;stroke-opacity:1" d="m 30.031728,13.51272 c 1.01966,-0.0599 2.29997,0.25159 3.34244,1.73632 2.08493,2.96947 44.316672,81.15888 44.316672,81.15888 0.0945,0.30721 1.6096,1.93802 -0.0555,3.59624 -2.28385,0.57395 -3.02263,-1.64243 -3.16393,-1.76018 0,0 -45.788402,-76.16157 -47.282392,-79.46802 -1.49399,-3.30646 1.06402,-4.77232 1.06402,-4.77232 0,0 0.75905,-0.43107 1.7787,-0.49092 z" sodipodi:nodetypes="sscccscs"/><circle style="fill:#ffffff;stroke:#000080;stroke-width:1;stroke-linecap:square;stroke-dasharray:none;stroke-opacity:1" id="circle1-4" cx="56.011547" cy="54.27253" r="33.749165"/><path id="rect4-4" style="fill:#000080;fill-opacity:1;stroke:none;stroke-width:3.60223;stroke-linecap:square" d="m 29.828138,32.77407 -1.89291,2.53835 25.427902,18.96008 -25.427902,18.96008 1.8929,2.53835 L 56.01155,56.24757 82.19496,75.77093 84.08787,73.23258 58.65997,54.2725 84.08787,35.31242 82.19496,32.77407 56.01155,52.29743 Z"/><circle style="fill:#000080;stroke:none;stroke-width:1.89507;stroke-linecap:square" id="path1-3" cx="56.011547" cy="54.27253" r="22.527601"/><path id="rect3-9" style="fill:#ffffff;fill-opacity:1;stroke:none;stroke-width:2.68561;stroke-linecap:square" d="m 61.84995,32.24077 c 0,0 -13.75561,8.33719 -12.59406,20.81372 0,0 5.74194,-2.40146 10.53941,0 H 49.25589 33.219138 v 2.43602 H 78.80395 v -2.43602 h -18.9854 c -0.0194,-0.0694 -2.81668,-10.09975 -0.2067,-17.11472 1.9e-4,-5.1e-4 3.2e-4,-0.001 5.1e-4,-0.002 z"/><path id="path5-4" style="color:#000000;fill:#ffffff;-inkscape-stroke:none" d="m 57.1272,57.40084 c -0.49949,-0.0109 -0.97192,0.0929 -1.39009,0.25373 -0.66909,0.25729 -1.2325,0.63957 -1.74977,0.95911 -0.51727,0.31955 -0.98383,0.57056 -1.38493,0.65784 -0.40109,0.0873 -0.73517,0.0667 -1.23816,-0.24598 l 0.004,0.004 c -2.10244,-1.32416 -4.99167,-1.80078 -7.19543,-0.0842 l -0.0506,0.0393 -0.0408,0.047 c -0.51936,0.56844 -0.87533,0.67357 -1.27537,0.66198 -0.40004,-0.0116 -0.90782,-0.21552 -1.48466,-0.53895 -1.15366,-0.64687 -2.55856,-1.81635 -4.322212,-1.4609 l 0.29713,1.47071 c 0.90845,-0.18309 1.994612,0.57188 3.290762,1.29863 0.64807,0.36338 1.3554,0.70693 2.17609,0.73071 0.79406,0.023 1.63441,-0.33014 2.35077,-1.07797 1.59052,-1.22329 3.73657,-0.90123 5.45548,0.18138 l 0.002,0.002 0.002,0.002 c 0.79124,0.4918 1.63125,0.59361 2.34766,0.4377 0.7164,-0.15591 1.31165,-0.51347 1.8557,-0.84956 0.54405,-0.33609 1.04303,-0.65846 1.49965,-0.83406 0.4539,-0.17455 0.83132,-0.22112 1.30276,-0.0703 0.99469,0.52109 2.0797,1.20944 3.31453,1.56063 1.27341,0.36216 2.76776,0.28139 4.12688,-0.77566 l 0.0119,-0.01 0.0134,-0.009 c 0.53068,-0.44996 0.9164,-0.52088 1.39474,-0.46509 0.47835,0.0558 1.05128,0.30581 1.68155,0.6289 0.63027,0.3231 1.31039,0.71268 2.07998,0.9493 0.76958,0.23661 1.67332,0.29735 2.55488,-0.0956 l 0.0429,-0.0196 0.0413,-0.0253 c 0.68726,-0.41967 1.42561,-0.77409 2.18333,-1.05472 l -0.52142,-1.40611 c -0.82479,0.30547 -1.62645,0.68988 -2.38176,1.14566 -0.49382,0.213 -0.93279,0.18761 -1.47743,0.0202 -0.55363,-0.17021 -1.17286,-0.50751 -1.83607,-0.84749 -0.6632,-0.33998 -1.3758,-0.6901 -2.19366,-0.78548 -0.80934,-0.0944 -1.71871,0.12862 -2.51354,0.79116 -1.00444,0.78121 -1.82009,0.79349 -2.79673,0.51573 -0.97663,-0.27775 -2.04108,-0.93042 -3.14089,-1.4981 l -0.0543,-0.0274 -0.0589,-0.0196 c -0.31322,-0.10157 -0.62273,-0.1495 -0.92242,-0.15606 z m -17.81958,4.63847 -0.926042,1.17771 c 2.486632,1.95445 6.046302,2.2411 8.836152,0.75189 0.96894,-0.082 1.94876,0.37702 3.0856,0.89245 1.15185,0.52224 2.51246,1.08181 4.05298,0.63511 l 0.0372,-0.01 0.0351,-0.0155 c 0.96945,-0.39269 1.91881,-0.87425 2.82412,-1.15084 0.89768,-0.27425 1.7092,-0.34741 2.52543,-0.0429 1.03274,0.67684 2.36632,1.65419 4.05453,1.26969 1.11032,-0.13157 2.13174,-0.4897 3.07423,-0.71468 0.93786,-0.22388 1.76656,-0.31109 2.57917,-0.0413 0.57517,0.38458 1.25501,0.63089 1.96784,0.66817 0.75995,0.0398 1.57657,-0.17906 2.20916,-0.75964 l -1.01596,-1.10538 c -0.30747,0.28219 -0.67927,0.3897 -1.11517,0.3669 -0.43591,-0.0228 -0.9154,-0.19893 -1.2852,-0.46457 l -0.0858,-0.061 -0.0977,-0.0351 c -1.2312,-0.44132 -2.42985,-0.28385 -3.50417,-0.0274 -1.07433,0.25645 -2.06578,0.60319 -2.96261,0.6997 l -0.045,0.006 -0.045,0.01 c -0.99108,0.23094 -1.9218,-0.42182 -3.03341,-1.1405 l -0.0661,-0.0429 -0.0744,-0.0274 c -1.222,-0.46568 -2.43735,-0.32025 -3.51761,0.01 -1.05736,0.32303 -2.01938,0.81226 -2.88665,1.16789 -0.9906,0.2832 -1.89961,-0.057 -3.00602,-0.55863 -1.11011,-0.50331 -2.37083,-1.17707 -3.89227,-1.02526 l -0.16226,0.0155 -0.14056,0.0822 c -2.25254,1.31459 -5.36891,1.08221 -7.4197,-0.52968 z m 20.24372,5.18264 c -0.087,0.002 -0.17354,0.008 -0.25941,0.0155 v -10e-4 c -0.68696,0.0631 -1.33344,0.2987 -1.90221,0.56845 -1.13754,0.53949 -2.12832,1.15203 -3.02152,1.20716 l -0.092,0.006 -0.0879,0.0269 c -0.91539,0.28815 -1.63671,-0.008 -2.57452,-0.48989 C 50.67597,68.0726 49.6001,67.37703 48.21192,67.397 l -0.0842,0.002 -0.0822,0.0196 c -1.85991,0.4536 -3.64379,1.00066 -5.04879,0.11523 l -0.79892,1.26969 c 2.04011,1.28568 4.30418,0.53923 6.05855,0.10129 0.84168,-0.004 1.673,0.46832 2.67219,0.98238 0.99129,0.50998 2.22767,1.00859 3.64422,0.59221 1.37578,-0.12451 2.48538,-0.85693 3.45922,-1.31879 1.00305,-0.47572 1.70576,-0.70393 2.64635,-0.15813 l 0.006,0.004 0.008,0.004 c 1.85852,1.02557 4.2092,1.64541 6.38255,0.57619 l 0.002,-0.001 c 0.59703,-0.27645 1.63103,-0.41257 2.42569,-1.26246 L 68.40704,67.2995 c -0.34228,0.36607 -1.09306,0.52411 -1.96318,0.92811 l -0.009,0.004 -0.008,0.004 c -1.58286,0.78565 -3.38623,0.35677 -5.00951,-0.53899 l 0.0134,0.008 C 60.7962,67.33641 60.16098,67.20686 59.55179,67.22248 Z m -11.12697,4.1398 -0.75344,1.29657 c 1.38924,0.80738 3.11977,1.78321 5.06791,1.51773 l 0.11369,-0.0134 0.10335,-0.0491 c 0.5745,-0.26774 1.16934,-0.48458 1.6521,-0.51934 0.48275,-0.0348 0.81894,0.0448 1.19579,0.45113 l 0.0527,0.0563 0.0641,0.045 c 0.94209,0.6656 2.03689,0.66923 2.95538,0.43201 0.89756,-0.23183 1.69436,-0.66088 2.35747,-0.97668 0.42279,-0.15985 0.95965,-0.27812 1.53324,-0.56276 l -0.66611,-1.34359 c -0.36487,0.18106 -0.84758,0.2956 -1.39836,0.50385 l -0.0274,0.01 -0.0274,0.0139 c -0.71974,0.3402 -1.47199,0.73009 -2.14664,0.90434 -0.65793,0.16993 -1.16591,0.16227 -1.67587,-0.18087 -0.67061,-0.67083 -1.54622,-0.90453 -2.32388,-0.84853 -0.72773,0.0524 -1.37273,0.32589 -1.96319,0.5917 -6.2e-4,9e-5 -10e-4,-8e-5 -0.002,0 -1.31219,0.17796 -2.75791,-0.5415 -4.11138,-1.32809 z"/><path style="-inkscape-font-specification:'Open Sans Bold';fill:#000080;stroke-width:0.264583" d="m 45.47051,77.15853 -4.04225,3.4584 -1.0015,-0.59407 1.09997,-5.20371 0.92743,0.55013 -0.7143,3.06118 q -0.0179,0.0775 -0.0777,0.28635 -0.058,0.2059 -0.13016,0.43551 -0.0674,0.2284 -0.12694,0.36932 0.0951,-0.11982 0.25732,-0.29199 0.16517,-0.1704 0.31507,-0.32182 0.15462,-0.15262 0.21579,-0.20847 l 2.34988,-2.09096 z m -1.95187,4.52337 2.01082,-4.61793 0.97918,0.42637 -2.01082,4.61794 z m 2.15354,0.90953 1.48932,-4.81151 1.02022,0.31579 -1.22853,3.969 1.95159,0.60408 -0.26079,0.84252 z m 6.87882,1.57944 -0.18126,-1.2401 -1.81547,-0.27535 -0.54084,1.13057 -1.13765,-0.17255 2.51597,-4.73364 1.29092,0.19581 1.00599,5.26781 z m -0.299,-2.16391 -0.1854,-1.21285 q -0.0165,-0.12099 -0.047,-0.31029 -0.0266,-0.19219 -0.0561,-0.38833 -0.0256,-0.19901 -0.0385,-0.34382 -0.0552,0.13448 -0.14806,0.33296 -0.0889,0.19559 -0.1713,0.37126 -0.0824,0.17566 -0.11812,0.25039 l -0.5333,1.10384 z m 6.54864,2.25826 -1.35704,0.0299 -2.27441,-3.76114 -0.031,6.8e-4 q 0.019,0.23735 0.0346,0.47822 0.0156,0.24088 0.0313,0.48175 0.0156,0.23743 0.0312,0.47829 l 0.0521,2.36966 -0.95406,0.021 -0.11084,-5.03552 1.34671,-0.0297 2.27012,3.72333 0.0241,-5.3e-4 q -0.012,-0.23406 -0.0275,-0.4646 -0.0154,-0.23054 -0.0308,-0.46108 -0.012,-0.23061 -0.0239,-0.46122 l -0.0525,-2.38343 0.96095,-0.0212 z m 5.24255,-3.54003 q 0.11657,0.57043 0.0707,1.06857 -0.0466,0.49477 -0.26787,0.89163 -0.21792,0.39616 -0.62284,0.66879 -0.40561,0.26927 -1.0098,0.39274 -0.60418,0.12347 -1.08291,0.0349 -0.47942,-0.0919 -0.83868,-0.37013 -0.35588,-0.2789 -0.59352,-0.7191 -0.23765,-0.4402 -0.35491,-1.01401 -0.15658,-0.7662 -0.0227,-1.38429 0.13657,-0.62216 0.5956,-1.043 0.45903,-0.42082 1.26573,-0.58568 0.80333,-0.16417 1.38391,0.0442 0.58395,0.20767 0.9503,0.72705 0.36972,0.5187 0.527,1.28828 z m -3.60149,0.736 q 0.10554,0.51643 0.31037,0.86489 0.20751,0.34438 0.52568,0.49033 0.31747,0.14258 0.75627,0.0529 0.44554,-0.0911 0.68162,-0.34676 0.23539,-0.25908 0.2844,-0.65589 0.0517,-0.40087 -0.0538,-0.91729 -0.15865,-0.77634 -0.53998,-1.16256 -0.38133,-0.38621 -1.04627,-0.25033 -0.44217,0.0904 -0.68094,0.35013 -0.23608,0.25571 -0.29115,0.65727 -0.0524,0.3975 0.0538,0.9173 z m 7.01847,-4.71859 0.17718,5.31686 -1.08938,0.41128 -3.37766,-4.10852 1.00881,-0.38088 1.94499,2.46941 q 0.0493,0.0624 0.17513,0.23953 0.12458,0.17392 0.2589,0.37361 0.13632,0.19525 0.2092,0.32978 -0.0342,-0.14913 -0.0674,-0.38332 -0.03,-0.23542 -0.0546,-0.44705 -0.0227,-0.21608 -0.0281,-0.29872 l -0.16588,-3.14112 z m 5.03825,2.9083 -0.90263,-0.86946 -1.60396,0.89391 0.26464,1.225 -1.00511,0.56016 -0.90919,-5.28307 1.14053,-0.63563 4.02083,3.54895 z m -1.56136,-1.52777 -0.88921,-0.84541 q -0.0871,-0.0855 -0.22716,-0.21652 -0.13871,-0.13567 -0.28211,-0.27267 -0.14207,-0.14169 -0.24092,-0.2483 0.0387,0.14016 0.0868,0.35391 0.0495,0.20907 0.0919,0.3984 0.0424,0.18934 0.0599,0.2703 l 0.25424,1.19926 z" id="text14" aria-label="VILANOVA"/><path style="-inkscape-font-specification:'Open Sans Bold';fill:#000080;stroke-width:0.264583" d="m 81.14373,48.99387 3.68526,-1.87191 -0.005,-0.0306 q -0.13797,0.031 -0.41733,0.0936 -0.27536,0.0654 -0.58866,0.13386 -0.31329,0.0685 -0.56785,0.11276 l -2.30801,0.40147 -0.16354,-0.94018 4.96223,-0.86314 0.24914,1.43232 -3.59037,1.83443 0.004,0.0204 4.01131,0.5856 0.24914,1.43232 -4.96222,0.86315 -0.17062,-0.98091 2.34874,-0.40854 q 0.23419,-0.0407 0.54085,-0.0871 0.30724,-0.043 0.58453,-0.0772 0.28068,-0.0348 0.42102,-0.0523 l -0.005,-0.0306 -4.10886,-0.6036 z m 0.50099,7.5704 1.20575,-0.34185 0.0356,-1.83589 -1.19158,-0.38837 0.0223,-1.15045 5.02197,1.87545 -0.0253,1.30545 -5.09108,1.68611 z m 2.10625,-0.57936 1.1782,-0.34239 q 0.11778,-0.0322 0.30147,-0.0872 0.18707,-0.0515 0.37765,-0.10638 0.19396,-0.0514 0.33585,-0.0831 -0.14055,-0.0372 -0.34946,-0.10327 -0.20553,-0.0626 -0.39046,-0.12128 -0.18493,-0.0587 -0.26369,-0.0844 L 83.77644,54.6725 Z m 2.42435,4.76708 q -0.13081,0.67298 -0.37793,1.07768 -0.24778,0.40809 -0.61723,0.55738 -0.36944,0.14929 -0.86995,0.052 -0.33818,-0.0657 -0.56684,-0.24355 -0.22866,-0.1778 -0.36375,-0.42166 -0.1351,-0.24385 -0.19937,-0.50903 l -2.43687,1.03545 0.22612,-1.16334 2.12661,-0.81149 0.10846,-0.55799 -1.89719,-0.36877 0.20377,-1.04836 4.9442,0.96103 z m -0.84451,-0.24136 0.0618,-0.31789 -1.33582,-0.25965 -0.0657,0.33818 q -0.10123,0.5208 0.0279,0.77752 0.13181,0.26077 0.46999,0.3265 0.35171,0.0684 0.54784,-0.1462 0.19547,-0.21119 0.29407,-0.71846 z" id="text15" aria-label="MAR"/><path style="-inkscape-font-specification:'Open Sans Bold';fill:#000080;stroke-width:0.264583" d="m 55.83205,26.3911 q 0.0756,0.84757 -0.19961,1.44627 -0.27207,0.59496 -0.86061,0.93798 -0.58883,0.33958 -1.45357,0.4167 l -1.42063,0.12668 -0.44737,-5.01682 1.57505,-0.14046 q 0.78924,-0.0704 1.39425,0.15929 0.60471,0.22623 0.97279,0.74681 0.36779,0.51715 0.4397,1.32355 z m -1.10249,0.12598 q -0.0496,-0.5559 -0.24611,-0.89808 -0.19341,-0.34593 -0.52784,-0.48904 -0.33099,-0.14343 -0.79768,-0.10181 l -0.56619,0.0505 0.29131,3.26677 0.45639,-0.0407 q 0.77895,-0.0695 1.11938,-0.51833 0.34387,-0.44918 0.27074,-1.2693 z m 5.27477,2.6979 -2.89313,-0.2104 0.36533,-5.02347 2.89313,0.2104 -0.0635,0.87275 -1.82796,-0.13294 -0.0802,1.10297 1.70083,0.12369 -0.0635,0.87275 -1.70083,-0.12369 -0.0942,1.29538 1.82796,0.13294 z" id="text16" aria-label="DE"/><path style="-inkscape-font-specification:'Open Sans Bold';fill:#000080;stroke-width:0.264583" d="m 28.174098,64.35773 q 0.1032,0.28873 0.29674,0.47199 0.18915,0.18118 0.45451,0.25829 0.2642,0.0739 0.59049,0.0451 0.32629,-0.0288 0.69936,-0.16215 0.50284,-0.17972 0.81563,-0.43054 0.30839,-0.2529 0.40264,-0.58292 0.091,-0.32887 -0.0574,-0.74411 -0.1032,-0.28873 -0.27127,-0.55427 -0.16924,-0.26878 -0.41101,-0.56651 l 0.84347,-0.30146 q 0.24223,0.2683 0.40637,0.55353 0.16739,0.28408 0.30304,0.66364 0.26204,0.73318 0.12962,1.31465 -0.13682,0.57939 -0.60067,1.00127 -0.4671,0.42303 -1.19702,0.68391 -0.53853,0.19248 -1.03839,0.2065 -0.49987,0.014 -0.9284,-0.15112 -0.42853,-0.16513 -0.75537,-0.5166 -0.32684,-0.35148 -0.51931,-0.89001 -0.12638,-0.35361 -0.16193,-0.73968 -0.04,-0.38816 -1.8e-4,-0.76823 l 0.93347,0.0322 q -0.0314,0.31124 -0.0293,0.61413 0.002,0.30288 0.0949,0.56241 z m 0.13331,-7.85985 q 0.57672,-0.0798 1.0709,-0.002 0.49077,0.0782 0.87263,0.32445 0.38139,0.24286 0.62752,0.66442 0.24271,0.42203 0.32722,1.03288 0.0845,0.61086 -0.0345,1.08293 -0.12244,0.47254 -0.4231,0.81323 -0.30113,0.33729 -0.75565,0.54624 -0.45452,0.20895 -1.03466,0.28921 -0.77466,0.10717 -1.38291,-0.066 -0.61214,-0.17616 -1.00269,-0.66121 -0.39055,-0.48504 -0.50338,-1.30065 -0.11236,-0.8122 0.13278,-1.37824 0.24466,-0.56944 0.78646,-0.90176 0.54132,-0.33573 1.31939,-0.44337 z m 0.50373,3.64124 q 0.52213,-0.0722 0.88299,-0.25431 0.35697,-0.18503 0.52301,-0.49319 0.16263,-0.30768 0.10126,-0.75132 -0.0623,-0.45046 -0.30237,-0.70244 -0.24347,-0.25151 -0.63632,-0.32584 -0.39674,-0.0773 -0.91887,-0.005 -0.7849,0.10858 -1.19476,0.46438 -0.40986,0.3558 -0.31686,1.02808 0.0618,0.44705 0.30579,0.70197 0.24006,0.25198 0.63727,0.33267 0.39332,0.0777 0.91886,0.005 z m 2.04744,-5.04361 -5.03228,-0.21155 0.0449,-1.06703 4.15112,0.1745 0.0858,-2.04114 0.88116,0.037 z m 0.25875,-3.97905 -4.94905,-0.93572 0.19841,-1.04939 4.08246,0.77188 0.37954,-2.00738 0.86659,0.16385 z m 1.87675,-6.80052 -1.251,-0.0755 -0.63995,1.72112 0.99646,0.76011 -0.40102,1.07852 -4.12078,-3.42878 0.45504,-1.22383 5.36227,0.0899 z m -2.17941,-0.14876 -1.22517,-0.0659 q -0.12179,-0.008 -0.31335,-0.0173 -0.19358,-0.0132 -0.39159,-0.0243 -0.20004,-0.0156 -0.34444,-0.0325 0.12038,0.0815 0.29575,0.21289 0.17333,0.12693 0.32849,0.24343 0.15517,0.1165 0.22103,0.16672 l 0.97183,0.74728 z" id="text17" aria-label="COLLA"/></g></svg>