<?xml version="1.0" encoding="UTF-8" standalone="no"?>
<!-- Created with Inkscape (http://www.inkscape.org/) -->
<svg id="svg4038" xmlns:rdf="http://www.w3.org/1999/02/22-rdf-syntax-ns#" xmlns="http://www.w3.org/2000/svg" height="513.13" width="521.88" version="1.1" xmlns:cc="http://creativecommons.org/ns#" xmlns:xlink="http://www.w3.org/1999/xlink" xmlns:dc="http://purl.org/dc/elements/1.1/">

 <defs id="defs4040">

  <linearGradient id="linearGradient4036" y2="465.98" gradientUnits="userSpaceOnUse" y1="513.96" x2="379.36" x1="379.52">

   <stop id="stop3946" stop-color="#ebbc30" offset="0"/>

   <stop id="stop3952" stop-color="#ffff96" offset="0.48611"/>

   <stop id="stop3948" stop-color="#e1b42e" offset="1"/>

  </linearGradient>

 </defs>

 <metadata id="metadata4043">

  <rdf:RDF>

   <cc:Work rdf:about="">

    <dc:format>image/svg+xml</dc:format>

    <dc:type rdf:resource="http://purl.org/dc/dcmitype/StillImage"/>

    <dc:title/>

   </cc:Work>

  </rdf:RDF>

 </metadata>

 <g id="layer1" transform="translate(-96.933247,-219.36707)">

  <g id="g3964" stroke-miterlimit="4" stroke="#000" stroke-dasharray="none" transform="matrix(2.9137863,0,0,2.9137863,-748.76127,-942.9728)">

   <path id="path3865" d="m379.18,572.38c-4.084-2.1524-11.508-6.9052-17.868-11.44-13.591-9.6897-25.766-20.895-34.883-32.107-8.1553-10.029-13.954-20.251-19.162-33.776-7.0308-18.26-12.338-42.572-14.372-65.832-0.24967-2.8558-0.26802-3.6035-0.0912-3.7128,0.12184-0.0754,2.4158-0.18918,5.0978-0.25306,14.776-0.35196,30.621-1.9187,39.645-3.9198,10.599-2.3506,23.58-7.8549,34.281-14.536,2.3099-1.4422,3.6358-2.3285,6.8847-4.6023l1.212-0.84825,2.4448,1.8393c11.285,8.49,24.937,14.965,38.484,18.252,4.7363,1.1493,12.521,2.4977,18.798,3.2559,7.1428,0.86282,17.108,1.2839,23.011,0.97241,2.1508-0.11351,4.0032-0.14914,4.1165-0.0792,0.2406,0.14872,0.15458,1.9443-0.38321,7.9994-2.052,23.103-7.254,45.727-14.37,62.496-3.289,7.7507-6.388,13.395-11.068,20.157-14.904,21.537-30.556,38.274-45.23,48.366-4.4171,3.0379-9.6995,5.9109-13.291,7.229-2.2061,0.80957-2.6155,0.87737-3.2568,0.53938z" stroke-width="4.19999981" fill="#a23047"/>

   <path id="path3872-1" d="m342.88,447.69c5.0248,8.6713,4.964,22.447,0.2345,32.826,9.919-4.4262,18.574-9.262,29.268-9.6214,1.0679,8.7011,0.33066,17.87-0.89587,28.57-2.251,13.138-4.7376,17.368-7.3387,29.149,15.409-3.2976,15.909-3.6508,31.501,0.0991-1.7256-9.8881-5.6253-19.602-7.4258-29.682-0.96218-9.7979-1.866-18.218-0.71251-27.499,8.9133-0.11621,22.125,6.2162,28.988,9.2155-4.9087-12.19-3.2339-24.297-0.67043-32.793-27.903,13.772-50.367,11.17-72.948-0.26441z" stroke-width="2.70000005" fill="url(#linearGradient4036)"/>

  </g>

 </g>

</svg>