<?xml version="1.0" encoding="UTF-8"?>
<svg id="Capa_1" xmlns="http://www.w3.org/2000/svg" viewBox="0 0 437.19 437.19">
  <defs>
    <style>
      .cls-1 {
        fill: #fff;
      }
    </style>
  </defs>
  <path class="cls-1" d="M171.96,190.04v58.58h-29.29v-58.58h29.29ZM265.23,190.04v58.58h29.29v-58.58h-29.29ZM189.3,295.25h58.58v-29.29h-58.58v29.29ZM189.3,172.69h58.58v-29.29h-58.58v29.29ZM142.67,312.6v58.58h29.29v-58.58h-29.29ZM265.23,312.6v58.58h29.29v-58.58h-29.29ZM189.3,417.82h58.58v-29.29h-58.58v29.29ZM218.82,248.92l-15.59,10.17h31.19s-15.59-10.17-15.59-10.17ZM234.42,179.65h-31.19s15.59,10.17,15.59,10.17l15.59-10.17ZM189.27,219.37l-10.17-15.59v31.19s10.17-15.59,10.17-15.59ZM258.54,234.97v-31.19s-10.17,15.59-10.17,15.59l10.17,15.59ZM203.23,382.44h31.19s-15.59-10.17-15.59-10.17l-15.59,10.17ZM248.37,342.72l10.17,15.59v-31.19s-10.17,15.59-10.17,15.59ZM179.1,327.13v31.19s10.17-15.59,10.17-15.59l-10.17-15.59Z"/>
  <rect class="cls-1" x="142.67" y="66.24" width="29.29" height="58.58"/>
  <rect class="cls-1" x="265.23" y="66.24" width="29.29" height="58.58"/>
  <rect class="cls-1" x="189.3" y="19.6" width="58.58" height="29.29"/>
  <polygon class="cls-1" points="203.23 54.99 234.41 54.99 218.82 65.16 203.23 54.99"/>
  <polygon class="cls-1" points="248.37 94.71 258.54 79.11 258.54 110.3 248.37 94.71"/>
  <polygon class="cls-1" points="179.1 110.3 179.1 79.11 189.27 94.71 179.1 110.3"/>
</svg>