<?xml version="1.0" encoding="UTF-8"?>
<svg id="Capa_1" xmlns="http://www.w3.org/2000/svg" viewBox="0 0 437.19 437.19">
  <defs>
    <style>
      .cls-1, .cls-2 {
        fill: #fff;
      }

      .cls-2 {
        fill-rule: evenodd;
      }
    </style>
  </defs>
  <path class="cls-1" d="M186.89,233.74h63.4v31.7h-63.4v-31.7ZM172.4,130.52l-31.7,54.91,27.45,15.85,31.7-54.91-27.45-15.85ZM296.49,185.43l-31.7-54.91-27.45,15.85,31.7,54.91,27.45-15.85Z"/>
  <path class="cls-1" d="M168.12,284.22v63.4h-31.7v-63.4h31.7ZM269.07,284.22v63.4h31.7v-63.4h-31.7ZM186.89,398.1h63.4v-31.7h-63.4v31.7Z"/>
  <path class="cls-1" d="M322.14,192.3l54.91-31.7,15.85,27.45-54.91,31.7-15.85-27.45ZM271.66,104.87l54.91-31.7-15.85-27.45-54.91,31.7,15.85,27.45ZM411.37,119.1l-31.7-54.91-27.45,15.85,31.7,54.91,27.45-15.85Z"/>
  <path class="cls-1" d="M165.53,104.87l-54.91-31.7,15.85-27.45,54.91,31.7-15.85,27.45ZM115.05,192.3l-54.91-31.7-15.85,27.45,54.91,31.7,15.85-27.45ZM57.52,64.19l-31.7,54.91,27.45,15.85,31.7-54.91-27.45-15.85Z"/>
  <polygon class="cls-1" points="352.11 97.91 368.33 126.01 351.06 117.25 352.11 97.91"/>
  <polygon class="cls-1" points="339.81 159.24 359.15 160.29 331.05 176.51 339.81 159.24"/>
  <polygon class="cls-1" points="289.73 104.94 317.83 88.72 309.07 106 289.73 104.94"/>
  <polygon class="cls-1" points="84.95 97.91 68.73 126.01 86 117.25 84.95 97.91"/>
  <polygon class="cls-1" points="97.25 159.24 77.91 160.29 106.01 176.51 97.25 159.24"/>
  <polygon class="cls-1" points="147.33 104.94 119.23 88.72 127.99 106 147.33 104.94"/>
  <polygon class="cls-1" points="203.51 356.96 235.96 356.96 219.73 346.38 203.51 356.96"/>
  <polygon class="cls-1" points="250.47 315.64 261.05 331.86 261.05 299.42 250.47 315.64"/>
  <polygon class="cls-1" points="178.41 299.42 178.41 331.86 188.99 315.64 178.41 299.42"/>
  <polygon class="cls-2" points="218.5 217.15 202.96 227.28 234.05 227.28 218.5 217.15"/>
  <polygon class="cls-2" points="238.02 182.2 254.57 190.59 239.03 163.67 238.02 182.2"/>
  <polygon class="cls-2" points="198.96 182.2 182.42 190.59 197.96 163.67 198.96 182.2"/>
</svg>