<?xml version="1.0" encoding="UTF-8"?>
<svg id="Capa_1" xmlns="http://www.w3.org/2000/svg" viewBox="0 0 437.19 437.19">
  <defs>
    <style>
      .cls-1, .cls-2 {
        fill: #fff;
      }

      .cls-2 {
        fill-rule: evenodd;
      }
    </style>
  </defs>
  <path class="cls-1" d="M168.6,193.6h100v50h-100v-50ZM145.73,30.79l-50,86.6,43.3,25,50-86.6-43.3-25ZM341.46,117.4l-50-86.6-43.3,25,50,86.6,43.3-25ZM189.04,381.4l-50-86.6-43.3,25,50,86.6,43.3-25ZM298.16,294.79l-50,86.6,43.3,25,50-86.6-43.3-25Z"/>
  <polygon class="cls-2" points="219.06 169.1 198.13 182.76 240 182.76 219.06 169.1"/>
  <polygon class="cls-2" points="250.5 112.9 272.79 124.2 251.85 87.94 250.5 112.9"/>
  <polygon class="cls-2" points="187.6 112.9 165.31 124.2 186.24 87.94 187.6 112.9"/>
  <polygon class="cls-2" points="250.5 320.45 272.79 309.15 251.85 345.41 250.5 320.45"/>
  <polygon class="cls-2" points="187.6 320.45 165.31 309.15 186.24 345.41 187.6 320.45"/>
</svg>