<?xml version="1.0" encoding="UTF-8"?>
<svg id="Capa_1" xmlns="http://www.w3.org/2000/svg" viewBox="0 0 437.19 437.19">
  <defs>
    <style>
      .cls-1, .cls-2 {
        fill: #fff;
      }

      .cls-2 {
        fill-rule: evenodd;
      }
    </style>
  </defs>
  <path class="cls-1" d="M185.5,132.94h66.2v33.1h-66.2v-33.1ZM170.36,25.17l-33.1,57.33,28.66,16.55,33.1-57.33-28.66-16.55ZM299.93,82.49l-33.1-57.33-28.66,16.55,33.1,57.33,28.66-16.55ZM185.5,304.25h66.2v-33.1h-66.2v33.1ZM170.36,412.03l-33.1-57.33,28.66-16.55,33.1,57.33-28.66,16.55ZM299.93,354.7l-33.1,57.33-28.66-16.55,33.1-57.33,28.66,16.55ZM165.89,185.35v66.2h-33.1v-66.2h33.1ZM271.3,185.35v66.2h33.1v-66.2h-33.1Z"/>
  <polygon class="cls-2" points="218.9 251.53 201.36 262.97 236.43 262.97 218.9 251.53"/>
  <polygon class="cls-2" points="218.9 185.06 201.36 173.63 236.44 173.63 218.9 185.06"/>
  <polygon class="cls-2" points="183.67 218.3 172.23 200.76 172.23 235.84 183.67 218.3"/>
  <polygon class="cls-2" points="254.13 218.3 265.57 200.76 265.57 235.84 254.13 218.3"/>
  <polygon class="cls-2" points="240.03 78.76 255 86.35 240.94 62 240.03 78.76"/>
  <polygon class="cls-2" points="197.8 78.76 182.83 86.35 196.89 62 197.8 78.76"/>
  <polygon class="cls-2" points="240.03 358.59 255 351 240.94 375.35 240.03 358.59"/>
  <polygon class="cls-2" points="197.8 358.59 182.83 351 196.89 375.35 197.8 358.59"/>
</svg>