<?xml version="1.0" encoding="UTF-8"?>
<svg id="Capa_1" data-name="Capa 1" xmlns="http://www.w3.org/2000/svg" viewBox="0 0 300 300">
  <defs>
    <style>
      .cls-1 {
        fill: #fff;
      }
    </style>
  </defs>
  <path class="cls-1" d="M142.07,161.95l-.72-34.61h6.31c3.48,0,6.52-.63,9.1-1.89,2.58-1.26,4.6-3.09,6.04-5.5,1.44-2.4,2.16-5.17,2.16-8.29s-.69-5.83-2.07-8.11c-1.38-2.28-3.33-4.06-5.86-5.32-2.52-1.26-5.53-1.89-9.01-1.89-4.81,0-9.13,1.35-12.98,4.06-3.85,2.7-6.91,6.52-9.19,11.45l-16.04-14.06c3.61-7.57,8.8-13.49,15.59-17.76,6.79-4.26,14.75-6.4,23.88-6.4,7.69,0,14.51,1.59,20.46,4.78,5.95,3.19,10.57,7.51,13.88,12.98,3.3,5.47,4.96,11.69,4.96,18.66s-1.44,12.62-4.33,17.67c-2.88,5.05-6.85,9.19-11.9,12.44-5.05,3.24-10.94,5.53-17.67,6.85l8.47-9.73-1.62,24.7h-19.47ZM151.62,207.74c-4.21,0-7.72-1.44-10.55-4.33-2.82-2.88-4.24-6.43-4.24-10.64s1.41-7.75,4.24-10.63c2.82-2.88,6.34-4.33,10.55-4.33s7.87,1.44,10.63,4.33c2.76,2.88,4.15,6.43,4.15,10.63s-1.38,7.75-4.15,10.64c-2.77,2.88-6.31,4.33-10.63,4.33Z"/>
  <path class="cls-1" d="M241.49,29.08v150.36c0,50.45-41.04,91.49-91.49,91.49s-91.49-41.04-91.49-91.49V29.08h182.99M264.82,5.75H35.18v173.68c0,63.41,51.41,114.82,114.82,114.82h0c63.41,0,114.82-51.41,114.82-114.82V5.75h0Z"/>
</svg>